<?xml version="1.0" encoding="utf-8"?>
<!-- Generator: Adobe Illustrator 16.0.0, SVG Export Plug-In . SVG Version: 6.00 Build 0)  -->
<!DOCTYPE svg PUBLIC "-//W3C//DTD SVG 1.1//EN" "http://www.w3.org/Graphics/SVG/1.1/DTD/svg11.dtd">
<svg version="1.1" id="Layer_1" xmlns="http://www.w3.org/2000/svg" xmlns:xlink="http://www.w3.org/1999/xlink" x="0px" y="0px"
	 width="128px" height="128px" viewBox="0 0 128 128" enable-background="new 0 0 128 128" xml:space="preserve">
<g>
	<g>
		<g>
			<path fill="#282D33" d="M90.354,73.003c-5.893,0-11.729-1.416-16.935-4.101l-13.17,3.503l3.032-11.223
				C57.023,54.43,53.591,45.71,53.591,36.5C53.591,16.374,70.083,0,90.354,0c20.271,0,36.762,16.374,36.762,36.5
				C127.116,56.628,110.625,73.003,90.354,73.003z M73.924,64.627l0.699,0.38c4.796,2.611,10.235,3.99,15.731,3.99
				c18.063,0,32.757-14.578,32.757-32.497c0-17.918-14.694-32.496-32.757-32.496S57.596,18.582,57.596,36.5
				c0,8.537,3.317,16.603,9.34,22.709l0.808,0.818l-1.816,6.723L73.924,64.627z"/>
		</g>
		<g>
			<g>
				
					<rect x="88.186" y="16.651" transform="matrix(0.8321 0.5546 -0.5546 0.8321 35.4625 -43.8712)" fill="#282D33" width="4.006" height="39.965"/>
			</g>
			<g>
				<g>
					<path fill="#282D33" d="M80.115,38.541c-3.767,0-6.83-3.046-6.83-6.791v-6.534c0-3.744,3.063-6.791,6.83-6.791
						s6.831,3.046,6.831,6.791v6.534C86.946,35.495,83.882,38.541,80.115,38.541z M80.115,22.43c-1.558,0-2.825,1.25-2.825,2.786
						v6.534c0,1.536,1.268,2.786,2.825,2.786c1.559,0,2.826-1.25,2.826-2.786v-6.534C82.941,23.68,81.674,22.43,80.115,22.43z"/>
				</g>
				<g>
					<path fill="#282D33" d="M100.258,54.842c-3.764,0-6.826-3.046-6.826-6.789v-6.532c0-3.745,3.063-6.792,6.826-6.792
						c3.767,0,6.831,3.046,6.831,6.792v6.532C107.089,51.796,104.024,54.842,100.258,54.842z M100.258,38.735
						c-1.556,0-2.821,1.25-2.821,2.787v6.532c0,1.535,1.266,2.784,2.821,2.784c1.559,0,2.826-1.249,2.826-2.784v-6.532
						C103.084,39.985,101.816,38.735,100.258,38.735z"/>
				</g>
			</g>
		</g>
	</g>
	<g>
		<g>
			<path fill="#282D33" d="M35.213,128l-4.539-9.838l0.447-9.643l-4.036-8.067l1.455-5.168l-0.873,0.571l-1.024-2.549l-2.694-0.543
				l-8.037-6.798l-1.745-9.265l-2.587-5.158l-7.693,5.621l-3.002-7.229L6.65,58.128l12.179-0.576l12.189-6.916l20.651,1.496
				l2.125,9.321L43.6,69.907l-4.765-1.229l2.843,4.827l-8.809,9.159l-5.064,2.79l1.78,4.358l3.398-2.225l14.089,11.579l-9.279,20.7
				l1.211,6.949L35.213,128z M31.359,100.046l3.811,7.615l-0.428,9.223l7.425-16.564l-8.838-7.263L31.359,100.046z M19.584,83.827
				l4.924,4.164l-1.74-4.334l7.637-4.207l6.28-6.53l-6.201-10.532l12.135,3.13l6.725-5.576l-0.919-4.03l-16.484-1.194l-11.966,6.789
				L9.208,62.017l-3.932,8.051l0.356,0.86l7.405-5.41l4.96,9.892L19.584,83.827z"/>
		</g>
		<g>
			<polygon fill="#282D33" points="63.633,118.776 59.823,97.709 51.825,96.688 50.605,82.351 60.358,82.735 65.263,82.48 
				66.11,81.638 61.882,79.607 58.913,82.307 49.564,77.938 54.001,74.534 51.932,69.114 55.673,67.685 58.809,75.893 
				57.233,77.102 58.192,77.549 61.184,74.83 72.951,80.478 67.001,86.401 60.383,86.745 54.98,86.531 55.542,93.126 63.241,94.106 
				66.072,109.757 70.621,104.435 71.464,95.763 74.636,91.169 76.295,88.275 73.71,82.983 84.858,84.073 86.716,89.156 
				88.591,85.36 94.37,91.066 94.437,88.866 100.548,84.376 104.074,75.293 107.808,76.742 103.859,86.913 98.382,90.938 
				98.105,100.139 94.231,100.789 91.668,94.026 89.725,92.108 86.167,99.317 81.962,87.814 80.454,87.667 80.826,88.427 
				77.979,93.376 75.35,97.185 74.485,106.078 			"/>
		</g>
		<g>
			<path fill="#282D33" d="M107.665,121.805l-4.491-6.817l-6.76,1.337l-0.73-8.386l8.046-7.235l11.313,3.02l-1.119,7.938
				l-0.385,1.916L107.665,121.805z M105.037,110.536l2.761,4.189l1.982-2.778l0.205-1.018l0.597-4.253l-5.789-1.545l-4.946,4.449
				l0.17,1.948L105.037,110.536z"/>
		</g>
	</g>
</g>
</svg>
