<?xml version="1.0" encoding="utf-8"?>
<!-- Generator: Adobe Illustrator 16.0.0, SVG Export Plug-In . SVG Version: 6.00 Build 0)  -->
<!DOCTYPE svg PUBLIC "-//W3C//DTD SVG 1.1//EN" "http://www.w3.org/Graphics/SVG/1.1/DTD/svg11.dtd">
<svg version="1.1" id="Layer_1" xmlns="http://www.w3.org/2000/svg" xmlns:xlink="http://www.w3.org/1999/xlink" x="0px" y="0px"
	 width="128px" height="128px" viewBox="0 0 128 128" enable-background="new 0 0 128 128" xml:space="preserve">
<g>
	<g>
		<g>
			<path fill="#282D33" d="M64,68.597l-1.667-2.542c-0.846-1.289-20.698-31.697-20.698-43.49
				C41.636,10.153,51.669,0.058,64.001,0.058c12.33,0,22.361,10.097,22.361,22.507c0,11.793-19.851,42.201-20.695,43.49L64,68.597z
				 M64.001,4.044c-10.134,0-18.379,8.309-18.38,18.521c0,8.029,12.03,28.687,18.379,38.714
				c6.348-10.027,18.376-30.685,18.376-38.714C82.376,12.353,74.133,4.044,64.001,4.044z"/>
		</g>
		<g>
			<path fill="#282D33" d="M64.002,32.765c-5.593,0-10.142-4.575-10.142-10.2c0-5.624,4.549-10.199,10.142-10.199
				s10.142,4.575,10.142,10.199C74.144,28.189,69.595,32.765,64.002,32.765z M64.002,16.352c-3.395,0-6.155,2.787-6.155,6.213
				c0,3.427,2.761,6.214,6.155,6.214c3.394,0,6.155-2.787,6.155-6.214C70.157,19.139,67.396,16.352,64.002,16.352z"/>
		</g>
	</g>
	<g>
		<g>
			<g>
				<polygon fill="#282D33" points="63.999,127.942 22.465,103.79 22.465,76.791 26.452,76.791 26.452,101.496 63.999,123.331 
					101.55,101.496 101.55,76.791 105.537,76.791 105.537,103.79 				"/>
			</g>
			<g>
				<rect x="62.008" y="77.858" fill="#282D33" width="3.986" height="44.489"/>
			</g>
			<g>
				<g>
					<path fill="#282D33" d="M82.546,91.153L60.032,78.059l45.45-26.4L128,64.751L82.546,91.153z M67.965,78.061l14.583,8.481
						l37.519-21.793l-14.586-8.48L67.965,78.061z"/>
				</g>
				<g>
					<path fill="#282D33" d="M45.45,91.153L0,64.751l22.516-13.093l45.452,26.4L45.45,91.153z M7.934,64.749l37.516,21.793
						l14.585-8.481L22.517,56.27L7.934,64.749z"/>
				</g>
			</g>
			<g>
				<g>
					<polygon fill="#282D33" points="22.516,56.22 0,43.124 42.674,18.335 44.676,21.783 7.934,43.126 22.517,51.608 47.764,36.942 
						49.766,40.39 					"/>
				</g>
				<g>
					<polygon fill="#282D33" points="105.482,56.22 78.001,40.257 80.004,36.81 105.48,51.608 120.066,43.126 83.717,22.015 
						85.721,18.567 128,43.124 					"/>
				</g>
			</g>
		</g>
	</g>
</g>
</svg>
